PathFileType	4	(X/Y/Z)	/Users/itak/Documents/Research/Walk-IL/dataset/trc/00206_00008.trc
DataRate	CameraRate	NumFrames	NumMarkers	Units	OrigDataRate	OrigDataStartFrame	OrigNumFrames
100.000000	100.000000	4	53	mm	100.000000	145	582
Frame#	Time	RPSI			LPSI			L3			STRN			T10			C7			CLAV			RBAK			LBAK			LSHO			LUPA			LAEL			LAOL			LWTS			LWPS			LFRA			LIFD			LHPS			LHTS			RSHO			RUPA			RAEL			RAOL			RWTS			RWPS			RFRA			RIFD			RHTS			RHPS			RBHD			LFHD			RFHD			LBHD			LHIP			RHIP			RASI			LASI			LKNE			LTHI			LANK			LTIP			LTOE			LMT1			LMT5			LHEE			RKNE			RTHI			RANK			RTIP			RTOE			RMT1			RMT5			RHEE			
		X1	Y1	Z1	X2	Y2	Z2	X3	Y3	Z3	X4	Y4	Z4	X5	Y5	Z5	X6	Y6	Z6	X7	Y7	Z7	X8	Y8	Z8	X9	Y9	Z9	X10	Y10	Z10	X11	Y11	Z11	X12	Y12	Z12	X13	Y13	Z13	X14	Y14	Z14	X15	Y15	Z15	X16	Y16	Z16	X17	Y17	Z17	X18	Y18	Z18	X19	Y19	Z19	X20	Y20	Z20	X21	Y21	Z21	X22	Y22	Z22	X23	Y23	Z23	X24	Y24	Z24	X25	Y25	Z25	X26	Y26	Z26	X27	Y27	Z27	X28	Y28	Z28	X29	Y29	Z29	X30	Y30	Z30	X31	Y31	Z31	X32	Y32	Z32	X33	Y33	Z33	X34	Y34	Z34	X35	Y35	Z35	X36	Y36	Z36	X37	Y37	Z37	X38	Y38	Z38	X39	Y39	Z39	X40	Y40	Z40	X41	Y41	Z41	X42	Y42	Z42	X43	Y43	Z43	X44	Y44	Z44	X45	Y45	Z45	X46	Y46	Z46	X47	Y47	Z47	X48	Y48	Z48	X49	Y49	Z49	X50	Y50	Z50	X51	Y51	Z51	X52	Y52	Z52	X53	Y53	Z53	

146	1.45	-1509.259887695312	1055.737060546875	-615.5045776367188	-1489.397583007812	1056.838623046875	-738.972900390625	-1495.72216796875	1094.56005859375	-675.8697509765625	-1223.84716796875	1285.198608398438	-643.8848876953125	-1516.782592773438	1253.357299804688	-690.5217895507812	-1431.354248046875	1518.029174804688	-696.9053955078125	-1241.408569335938	1400.201171875	-658.5538330078125	-1527.043334960938	1350.286254882812	-594.8236694335938	-1422.196411132812	1490.380615234375	-796.5117797851562	-1334.708740234375	1470.572265625	-861.2600708007812	-1360.074584960938	1338.176879882812	-937.026611328125	-1351.008056640625	1118.137939453125	-948.3268432617188	-1412.832641601562	1107.126953125	-886.2383422851562	-1257.483032226562	884.2428588867188	-889.4061279296875	-1327.9755859375	864.8919067382812	-945.4315185546875	-1337.7197265625	1006.973999023438	-956.5739135742188	-1258.810546875	699.8252563476562	-859.2646484375	-1310.929565429688	795.544677734375	-936.1991577148438	-1243.605590820312	804.97802734375	-905.5746459960938	-1400.045532226562	1497.856567382812	-506.9911193847656	-1434.637084960938	1434.700317382812	-440.12548828125	-1465.208862304688	1145.336059570312	-384.51318359375	-1449.377197265625	1135.075561523438	-481.1235961914062	-1311.689819335938	928.708740234375	-363.8490295410156	-1393.194213867188	906.4473266601562	-334.1364440917969	-1441.98681640625	1074.789672851562	-359.1590881347656	-1277.39453125	741.4282836914062	-373.4512634277344	-1280.594482421875	839.2817993164062	-345.1693420410156	-1358.485717773438	826.86572265625	-325.5928039550781	-1387.163696289062	1672.645629882812	-625.0083618164062	-1190.347412109375	1717.766723632812	-704.2482299804688	-1226.27685546875	1720.4111328125	-580.0934448242188	-1357.181396484375	1677.7021484375	-759.02197265625	-1376.790283203125	986.1031494140625	-843.2424926757812	-1376.244140625	1009.928039550781	-467.7706604003906	-1286.502807617188	1031.83837890625	-515.2568359375	-1257.560668945312	1015.303894042969	-773.02099609375	-1392.73291015625	485.7266235351562	-773.3906860351562	-1375.975830078125	626.6050415039062	-809.2951049804688	-1512.951416015625	36.79352951049805	-742.6494750976562	-1446.64697265625	265.0433654785156	-769.6267700195312	-1292.881713867188	39.23011779785156	-713.5240478515625	-1344.017333984375	40.04851150512695	-665.9956665039062	-1404.461547851562	32.05775451660156	-779.6961059570312	-1563.3037109375	36.24225234985352	-673.2637329101562	-1227.960693359375	521.2328491210938	-468.6339416503906	-1281.201538085938	790.0269775390625	-450.7803344726562	-1480.62158203125	92.44496917724609	-451.4387512207031	-1248.649536132812	396.7490234375	-472.5534057617188	-1267.757934570312	45.66926193237305	-455.5900268554688	-1314.4326171875	45.57951354980469	-506.0690002441406	-1381.038696289062	60.98394393920898	-402.9665832519531	-1520.641845703125	102.2881088256836	-526.0223999023438	
147	1.46	-1507.692138671875	1055.576171875	-616.6197509765625	-1487.766967773438	1056.677490234375	-740.08740234375	-1494.092163085938	1094.443481445312	-677.05712890625	-1221.966430664062	1284.731079101562	-644.5687255859375	-1514.868530273438	1253.331909179688	-691.84716796875	-1429.009887695312	1517.87841796875	-698.0479736328125	-1239.290161132812	1399.78564453125	-659.2734375	-1525.214111328125	1350.264038085938	-596.1976318359375	-1419.650024414062	1490.208984375	-797.6307373046875	-1332.032958984375	1470.2724609375	-862.1689453125	-1357.4169921875	1337.956909179688	-938.060546875	-1348.563720703125	1117.97607421875	-949.609619140625	-1410.546875	1106.972412109375	-887.6643676757812	-1255.907592773438	883.6516723632812	-891.0252075195312	-1326.35009765625	864.7045288085938	-947.252685546875	-1335.545043945312	1006.822692871094	-958.0525512695312	-1257.881591796875	699.168212890625	-861.3228759765625	-1309.607055664062	795.2745971679688	-938.1452026367188	-1242.18701171875	804.4241943359375	-907.3681030273438	-1398.088012695312	1497.61083984375	-508.0031127929688	-1432.990112304688	1434.529541015625	-441.2653503417969	-1464.200073242188	1145.177490234375	-385.7269287109375	-1448.067016601562	1134.904174804688	-482.2844848632812	-1310.556884765625	928.6878662109375	-364.5463256835938	-1392.097534179688	906.3677368164062	-334.9694213867188	-1441.034057617188	1074.6337890625	-360.29052734375	-1275.972290039062	741.48388671875	-373.9858703613281	-1279.413696289062	839.3515625	-345.8122253417969	-1357.303344726562	826.81201171875	-326.33056640625	-1384.412475585938	1672.52001953125	-625.9478759765625	-1187.223510742188	1716.939086914062	-704.6412353515625	-1223.455810546875	1719.644409179688	-580.5776977539062	-1354.05126953125	1677.557739257812	-759.8851318359375	-1375.230590820312	985.7752075195312	-844.243896484375	-1374.62158203125	1010.167358398438	-468.7786560058594	-1284.9404296875	1031.7109375	-516.3045654296875	-1255.953491210938	1014.922546386719	-774.0726318359375	-1392.52001953125	485.5783996582031	-773.9661254882812	-1375.500122070312	626.4375	-809.9277954101562	-1513.011474609375	36.67724990844727	-742.7413940429688	-1446.732421875	265.0183410644531	-769.9459228515625	-1292.96240234375	39.24907302856445	-713.5021362304688	-1344.075439453125	40.12749481201172	-666.021484375	-1404.4580078125	32.0112190246582	-779.7487182617188	-1563.296752929688	36.17116928100586	-673.2692260742188	-1219.294799804688	523.6304931640625	-469.2178039550781	-1277.189331054688	791.629150390625	-451.6249694824219	-1473.747680664062	96.05748748779297	-453.5472717285156	-1239.898193359375	399.0993041992188	-473.5996398925781	-1261.2841796875	48.05653381347656	-456.4502563476562	-1307.698852539062	47.78128814697266	-507.1988525390625	-1374.711547851562	64.16188049316406	-404.4823303222656	-1513.257568359375	105.9327774047852	-528.3348388671875	
148	1.47	-1505.980712890625	1055.483154296875	-617.6019287109375	-1486.055786132812	1056.547485351562	-741.0840454101562	-1492.334228515625	1094.369995117188	-678.1264038085938	-1219.966674804688	1284.310791015625	-645.2450561523438	-1512.852294921875	1253.335327148438	-693.0919799804688	-1426.556884765625	1517.731567382812	-699.10888671875	-1237.066040039062	1399.416748046875	-659.9602661132812	-1523.271118164062	1350.268920898438	-597.4956665039062	-1417.030395507812	1490.07958984375	-798.6868286132812	-1329.300048828125	1470.019409179688	-863.0327758789062	-1354.707153320312	1337.776733398438	-939.0380859375	-1346.061401367188	1117.854614257812	-950.8260498046875	-1408.182250976562	1106.863891601562	-889.0089111328125	-1254.3046875	883.0892333984375	-892.63134765625	-1324.700561523438	864.5643310546875	-949.0343627929688	-1333.325073242188	1006.720825195312	-959.4771118164062	-1256.942016601562	698.5370483398438	-863.3995361328125	-1308.258178710938	795.0424194335938	-940.0668334960938	-1240.745483398438	803.8941650390625	-909.1543579101562	-1396.030029296875	1497.387573242188	-508.9644775390625	-1431.241088867188	1434.381713867188	-442.3570251464844	-1463.16162109375	1145.038452148438	-386.9360656738281	-1446.69384765625	1134.75537109375	-483.4353332519531	-1309.447509765625	928.6609497070312	-365.1934204101562	-1391.04931640625	906.2924194335938	-335.8002014160156	-1440.060302734375	1074.489868164062	-361.4075317382812	-1274.575439453125	741.5282592773438	-374.4349365234375	-1278.286376953125	839.40625	-346.3885803222656	-1356.175537109375	826.7582397460938	-327.0412292480469	-1381.596069335938	1672.421875	-626.8171997070312	-1184.03271484375	1716.162475585938	-704.9407348632812	-1220.57568359375	1718.901123046875	-580.9694213867188	-1350.830444335938	1677.467651367188	-760.67822265625	-1373.642944335938	985.4385375976562	-845.1747436523438	-1372.776733398438	1010.510803222656	-469.7555847167969	-1283.170288085938	1031.640380859375	-517.3634643554688	-1254.287963867188	1014.554992675781	-775.138671875	-1392.220458984375	485.4361572265625	-774.4515991210938	-1374.93798828125	626.2734985351562	-810.482177734375	-1513.06689453125	36.57935333251953	-742.81884765625	-1446.79541015625	265.005615234375	-770.22412109375	-1293.03369140625	39.26678848266602	-713.4886474609375	-1344.118408203125	40.20376968383789	-666.05126953125	-1404.452026367188	31.96607971191406	-779.8037109375	-1563.30908203125	36.15029907226562	-673.2838134765625	-1211.045532226562	526.0862426757812	-469.7513732910156	-1273.265014648438	793.2666015625	-452.4102783203125	-1465.804809570312	98.84664154052734	-455.7088317871094	-1231.236450195312	401.4739379882812	-474.6022338867188	-1253.4384765625	50.59129333496094	-457.4677124023438	-1299.63623046875	50.10580444335938	-508.4358520507812	-1367.099975585938	66.99411773681641	-406.0784606933594	-1504.89697265625	108.6322784423828	-530.6824340820312	
149	1.48	-1504.138305664062	1055.454345703125	-618.4632568359375	-1484.25927734375	1056.446655273438	-741.9641723632812	-1490.451293945312	1094.339111328125	-679.0841064453125	-1217.835083007812	1283.941162109375	-645.9174194335938	-1510.730834960938	1253.36669921875	-694.2599487304688	-1423.987548828125	1517.5947265625	-700.0897827148438	-1234.728515625	1399.0947265625	-660.6178588867188	-1521.200439453125	1350.29638671875	-598.714111328125	-1414.333618164062	1489.9931640625	-799.6796875	-1326.50732421875	1469.818969726562	-863.8538208007812	-1351.939575195312	1337.64404296875	-939.96337890625	-1343.504150390625	1117.78076171875	-951.9791870117188	-1405.747436523438	1106.80859375	-890.2779541015625	-1252.662231445312	882.5714111328125	-894.2135009765625	-1323.013793945312	864.4755859375	-950.7711791992188	-1331.062866210938	1006.673217773438	-960.84912109375	-1255.976928710938	697.9400024414062	-865.4734497070312	-1306.86962890625	794.8558959960938	-941.957275390625	-1239.280029296875	803.398681640625	-910.9224853515625	-1393.865112304688	1497.187377929688	-509.8802795410156	-1429.38134765625	1434.259155273438	-443.4019775390625	-1462.082763671875	1144.92236328125	-388.1538696289062	-1445.232055664062	1134.632446289062	-484.5855712890625	-1308.373657226562	928.6232299804688	-365.7729797363281	-1390.055786132812	906.2188720703125	-336.6291198730469	-1439.071166992188	1074.36083984375	-362.5220336914062	-1273.212036132812	741.5540771484375	-374.7794189453125	-1277.2236328125	839.440673828125	-346.8685913085938	-1355.11181640625	826.7000122070312	-327.7196655273438	-1378.712280273438	1672.339233398438	-627.61279296875	-1180.780883789062	1715.440795898438	-705.1536254882812	-1217.63818359375	1718.182250976562	-581.2741088867188	-1347.52294921875	1677.419799804688	-761.3953857421875	-1372.030029296875	985.0947265625	-846.036376953125	-1370.746337890625	1010.944519042969	-470.7110595703125	-1281.218017578125	1031.632690429688	-518.440185546875	-1252.569213867188	1014.201904296875	-776.215087890625	-1391.81396484375	485.2997436523438	-774.8474731445312	-1374.270751953125	626.1069946289062	-810.9651489257812	-1513.118041992188	36.50430679321289	-742.8745727539062	-1446.802612304688	264.999267578125	-770.4521484375	-1293.090087890625	39.28125762939453	-713.4832153320312	-1344.140502929688	40.27221298217773	-666.0820922851562	-1404.444458007812	31.9234447479248	-779.8585815429688	-1563.352294921875	36.20197677612305	-673.3129272460938	-1203.2001953125	528.566650390625	-470.2498474121094	-1269.430053710938	794.9213256835938	-453.1308898925781	-1456.77880859375	100.755012512207	-457.8816833496094	-1222.65234375	403.8352355957031	-475.5535583496094	-1244.246826171875	53.1612548828125	-458.5856628417969	-1290.2451171875	52.42226409912109	-509.7421875	-1358.22607421875	69.3721923828125	-407.7221069335938	-1495.549560546875	110.3584671020508	-533.0328979492188	
